<svg width="56" height="55" viewBox="0 0 56 55" fill="none" xmlns="http://www.w3.org/2000/svg">
<rect width="55" height="55" rx="4" fill="#83B3D3"/>
<path d="M19.1723 31.8H21.9523V23.9L22.2523 22.54L21.2923 23.72L19.5123 24.94L18.4123 23.44L22.9723 19.76H24.4323V31.8H27.1523V34H19.1723V31.8ZM29.3 26.98C29.3 24.5267 29.72 22.7067 30.56 21.52C31.4 20.32 32.6067 19.72 34.18 19.72C35.86 19.72 37.0933 20.3133 37.88 21.5C38.6667 22.6733 39.06 24.5 39.06 26.98C39.06 29.4467 38.6333 31.28 37.78 32.48C36.94 33.68 35.7333 34.28 34.16 34.28C32.4933 34.28 31.2667 33.6533 30.48 32.4C29.6933 31.1333 29.3 29.3267 29.3 26.98ZM31.9 26.98C31.9 28.6067 32.0733 29.8667 32.42 30.76C32.78 31.64 33.3667 32.08 34.18 32.08C34.9667 32.08 35.54 31.6733 35.9 30.86C36.2733 30.0467 36.46 28.7533 36.46 26.98C36.46 25.3667 36.2867 24.12 35.94 23.24C35.5933 22.36 35 21.92 34.16 21.92C33.36 21.92 32.78 22.3333 32.42 23.16C32.0733 23.9867 31.9 25.26 31.9 26.98Z" fill="white"/>
</svg>
