<svg width="55" height="55" viewBox="0 0 55 55" fill="none" xmlns="http://www.w3.org/2000/svg">
<rect width="55" height="55" rx="4" fill="#83B3D3"/>
<path d="M26.6462 33.08C27.4728 33.08 28.0995 32.86 28.5262 32.42C28.9662 31.98 29.1862 31.4467 29.1862 30.82C29.1862 30.06 28.9595 29.5 28.5062 29.14C28.0528 28.78 27.3395 28.6 26.3662 28.6H24.9262V27.22L27.3462 23.92L28.4862 23.02L26.9062 23.2H23.5462V21H31.1862V22.42L28.3662 26.2L27.4862 26.74V26.84L28.3262 26.72C28.7928 26.76 29.2328 26.8667 29.6462 27.04C30.0728 27.2133 30.4395 27.4667 30.7462 27.8C31.0662 28.12 31.3195 28.52 31.5062 29C31.6928 29.48 31.7862 30.0333 31.7862 30.66C31.7862 31.4467 31.6528 32.1267 31.3862 32.7C31.1328 33.2733 30.7728 33.7533 30.3062 34.14C29.8528 34.5267 29.3195 34.8133 28.7062 35C28.0928 35.1867 27.4328 35.28 26.7262 35.28C26.1395 35.28 25.5328 35.2267 24.9062 35.12C24.2795 35.0133 23.7728 34.86 23.3862 34.66L24.0862 32.5C24.4328 32.6733 24.8128 32.8133 25.2262 32.92C25.6528 33.0267 26.1262 33.08 26.6462 33.08Z" fill="white"/>
</svg>
