<svg width="55" height="55" viewBox="0 0 55 55" fill="none" xmlns="http://www.w3.org/2000/svg">
<rect width="55" height="55" rx="4" fill="#83B3D3"/>
<path d="M31.3262 23.42C31.3262 24.1 31.1995 24.7867 30.9462 25.48C30.7062 26.1733 30.3928 26.8533 30.0062 27.52C29.6328 28.1867 29.2128 28.8333 28.7462 29.46C28.2928 30.0733 27.8462 30.64 27.4062 31.16L26.3462 31.98V32.08L27.7862 31.8H31.6262V34H23.2062V32.66C23.5262 32.3267 23.8862 31.94 24.2862 31.5C24.6862 31.0467 25.0862 30.5733 25.4862 30.08C25.8995 29.5733 26.2995 29.0533 26.6862 28.52C27.0728 27.9867 27.4195 27.4533 27.7262 26.92C28.0328 26.3733 28.2728 25.8467 28.4462 25.34C28.6328 24.8333 28.7262 24.3533 28.7262 23.9C28.7262 23.3533 28.5662 22.9067 28.2462 22.56C27.9395 22.2 27.4462 22.02 26.7662 22.02C26.3395 22.02 25.8995 22.1133 25.4462 22.3C25.0062 22.4733 24.6328 22.7 24.3262 22.98L23.2862 21.14C23.8062 20.7133 24.3928 20.3733 25.0462 20.12C25.7128 19.8533 26.4928 19.72 27.3862 19.72C27.9595 19.72 28.4862 19.8 28.9662 19.96C29.4462 20.12 29.8595 20.3533 30.2062 20.66C30.5528 20.9667 30.8262 21.3533 31.0262 21.82C31.2262 22.2733 31.3262 22.8067 31.3262 23.42Z" fill="white"/>
</svg>
