<svg width="168" height="45" viewBox="0 0 168 45" fill="none" xmlns="http://www.w3.org/2000/svg">
<g filter="url(#filter0_d_577:124)">
<rect x="4" width="160" height="37" rx="4" fill="#F2F2F2"/>
<path d="M37.9616 13.912C38.3669 13.816 38.8042 13.752 39.2736 13.72C39.7429 13.688 40.2069 13.672 40.6656 13.672C41.1562 13.672 41.6522 13.72 42.1536 13.816C42.6656 13.912 43.1296 14.088 43.5456 14.344C43.9616 14.6 44.2976 14.952 44.5536 15.4C44.8202 15.848 44.9536 16.4187 44.9536 17.112C44.9536 17.7947 44.8309 18.3707 44.5856 18.84C44.3402 19.3093 44.0149 19.6933 43.6096 19.992C43.2042 20.28 42.7402 20.488 42.2176 20.616C41.6949 20.744 41.1562 20.808 40.6016 20.808C40.5482 20.808 40.4576 20.808 40.3296 20.808C40.2122 20.808 40.0842 20.808 39.9456 20.808C39.8176 20.7973 39.6896 20.7867 39.5616 20.776C39.4336 20.7653 39.3429 20.7547 39.2896 20.744V25H37.9616V13.912ZM40.6976 14.824C40.4202 14.824 40.1536 14.8293 39.8976 14.84C39.6416 14.8507 39.4389 14.8773 39.2896 14.92V19.56C39.3429 19.5813 39.4282 19.5973 39.5456 19.608C39.6629 19.608 39.7856 19.6133 39.9136 19.624C40.0416 19.624 40.1642 19.624 40.2816 19.624C40.3989 19.624 40.4842 19.624 40.5376 19.624C40.9002 19.624 41.2576 19.592 41.6096 19.528C41.9722 19.4533 42.2976 19.3253 42.5856 19.144C42.8736 18.9627 43.1029 18.7067 43.2736 18.376C43.4549 18.0453 43.5456 17.624 43.5456 17.112C43.5456 16.6747 43.4602 16.312 43.2896 16.024C43.1296 15.7253 42.9109 15.4907 42.6336 15.32C42.3669 15.1387 42.0629 15.0107 41.7216 14.936C41.3802 14.8613 41.0389 14.824 40.6976 14.824ZM46.8991 13.8H52.9951V14.984H48.2271V18.648H52.5951V19.832H48.2271V23.816H53.0751V25H46.8991V13.8ZM62.3252 17.416L62.4212 16.136H62.3572L61.6692 17.448L56.2612 25H55.4772V13.8H56.8052V21.48L56.6932 22.744H56.7572L57.4612 21.432L62.8692 13.8H63.6532V25H62.3252V17.416ZM58.2452 11.08C58.2879 11.4747 58.4372 11.7787 58.6932 11.992C58.9492 12.2053 59.2905 12.312 59.7172 12.312C60.1439 12.312 60.4799 12.2053 60.7252 11.992C60.9812 11.7787 61.1359 11.48 61.1892 11.096L62.3252 11.368C62.2079 11.944 61.9359 12.4027 61.5092 12.744C61.0932 13.0747 60.4905 13.24 59.7012 13.24C58.9439 13.24 58.3199 13.096 57.8292 12.808C57.3492 12.5093 57.0665 12.04 56.9812 11.4L58.2452 11.08ZM73.5998 14.984H70.1118V25H68.7838V14.984H65.2958V13.8H73.5998V14.984ZM82.0908 17.416L82.1868 16.136H82.1228L81.4348 17.448L76.0268 25H75.2428V13.8H76.5708V21.48L76.4588 22.744H76.5228L77.2268 21.432L82.6348 13.8H83.4188V25H82.0908V17.416ZM92.8374 19.864H87.4614V25H86.1334V13.8H87.4614V18.68H92.8374V13.8H94.1654V25H92.8374V19.864ZM102.883 14.984H98.2114V25H96.8834V13.8H102.883V14.984ZM104.058 17.816C104.058 17.528 104.138 17.304 104.298 17.144C104.468 16.9733 104.692 16.888 104.97 16.888C105.258 16.888 105.487 16.9733 105.658 17.144C105.828 17.304 105.914 17.528 105.914 17.816C105.914 18.0933 105.828 18.3173 105.658 18.488C105.487 18.6587 105.258 18.744 104.97 18.744C104.692 18.744 104.468 18.6587 104.298 18.488C104.138 18.3173 104.058 18.0933 104.058 17.816ZM104.058 24.264C104.058 23.976 104.138 23.752 104.298 23.592C104.468 23.4213 104.692 23.336 104.97 23.336C105.258 23.336 105.487 23.4213 105.658 23.592C105.828 23.752 105.914 23.976 105.914 24.264C105.914 24.5413 105.828 24.7653 105.658 24.936C105.487 25.1067 105.258 25.192 104.97 25.192C104.692 25.192 104.468 25.1067 104.298 24.936C104.138 24.7653 104.058 24.5413 104.058 24.264ZM111.455 22.328C111.455 21.656 111.631 21.0747 111.983 20.584C112.335 20.0827 112.885 19.6293 113.631 19.224C113.365 19.064 113.114 18.8987 112.879 18.728C112.655 18.5467 112.453 18.344 112.271 18.12C112.101 17.896 111.962 17.6453 111.855 17.368C111.759 17.0907 111.711 16.7707 111.711 16.408C111.711 15.992 111.781 15.6133 111.919 15.272C112.069 14.9307 112.277 14.6373 112.543 14.392C112.821 14.1467 113.146 13.9547 113.519 13.816C113.903 13.6773 114.335 13.608 114.815 13.608C115.263 13.608 115.669 13.672 116.031 13.8C116.394 13.928 116.698 14.104 116.943 14.328C117.199 14.552 117.397 14.8187 117.535 15.128C117.674 15.4373 117.743 15.7787 117.743 16.152C117.743 16.76 117.605 17.2987 117.327 17.768C117.05 18.2267 116.591 18.68 115.951 19.128C116.229 19.288 116.49 19.464 116.735 19.656C116.991 19.848 117.21 20.0613 117.391 20.296C117.583 20.5307 117.733 20.7973 117.839 21.096C117.946 21.384 117.999 21.7147 117.999 22.088C117.999 22.5467 117.925 22.968 117.775 23.352C117.626 23.7253 117.407 24.0507 117.119 24.328C116.831 24.5947 116.479 24.808 116.063 24.968C115.647 25.1173 115.173 25.192 114.639 25.192C114.127 25.192 113.674 25.1173 113.279 24.968C112.885 24.8187 112.549 24.616 112.271 24.36C112.005 24.104 111.802 23.8053 111.663 23.464C111.525 23.112 111.455 22.7333 111.455 22.328ZM116.751 22.168C116.751 21.848 116.687 21.5707 116.559 21.336C116.431 21.0907 116.261 20.872 116.047 20.68C115.845 20.4773 115.61 20.296 115.343 20.136C115.077 19.976 114.799 19.8213 114.511 19.672C113.861 20.0347 113.397 20.44 113.119 20.888C112.842 21.336 112.703 21.7627 112.703 22.168C112.703 22.424 112.746 22.6693 112.831 22.904C112.917 23.1387 113.045 23.3413 113.215 23.512C113.386 23.6827 113.594 23.8213 113.839 23.928C114.095 24.024 114.389 24.072 114.719 24.072C114.986 24.072 115.242 24.0347 115.487 23.96C115.733 23.8747 115.946 23.7573 116.127 23.608C116.319 23.448 116.469 23.2507 116.575 23.016C116.693 22.7707 116.751 22.488 116.751 22.168ZM112.959 16.376C112.959 16.6747 113.018 16.9413 113.135 17.176C113.253 17.4 113.407 17.6027 113.599 17.784C113.802 17.9653 114.031 18.136 114.287 18.296C114.543 18.4453 114.81 18.5893 115.087 18.728C115.567 18.3547 115.919 17.9867 116.143 17.624C116.378 17.2613 116.495 16.8613 116.495 16.424C116.495 15.88 116.325 15.464 115.983 15.176C115.653 14.8773 115.253 14.728 114.783 14.728C114.495 14.728 114.239 14.776 114.015 14.872C113.791 14.968 113.599 15.0907 113.439 15.24C113.279 15.3893 113.157 15.5653 113.071 15.768C112.997 15.96 112.959 16.1627 112.959 16.376ZM119.87 24.312C119.87 24.056 119.955 23.848 120.126 23.688C120.297 23.528 120.515 23.448 120.782 23.448C121.113 23.448 121.379 23.5653 121.582 23.8C121.795 24.0347 121.902 24.376 121.902 24.824C121.902 25.208 121.849 25.544 121.742 25.832C121.635 26.12 121.497 26.3653 121.326 26.568C121.155 26.7813 120.969 26.952 120.766 27.08C120.563 27.2187 120.361 27.32 120.158 27.384L119.758 26.76C120.142 26.6107 120.425 26.376 120.606 26.056C120.798 25.7467 120.894 25.432 120.894 25.112C120.798 25.144 120.707 25.16 120.622 25.16C120.409 25.16 120.227 25.0907 120.078 24.952C119.939 24.8027 119.87 24.5893 119.87 24.312ZM126.088 24.072C126.824 24.072 127.432 23.8587 127.912 23.432C128.392 23.0053 128.632 22.3867 128.632 21.576C128.632 20.7973 128.392 20.216 127.912 19.832C127.442 19.448 126.792 19.256 125.96 19.256L124.616 19.336V13.8H129.608V14.984H125.816V18.168L126.504 18.136C127.56 18.1467 128.392 18.44 129 19.016C129.608 19.592 129.912 20.4187 129.912 21.496C129.912 22.0933 129.81 22.6267 129.608 23.096C129.405 23.5547 129.128 23.9387 128.776 24.248C128.434 24.5573 128.029 24.792 127.56 24.952C127.09 25.112 126.589 25.192 126.056 25.192C125.576 25.192 125.17 25.1653 124.84 25.112C124.509 25.0587 124.2 24.9787 123.912 24.872L124.248 23.784C124.493 23.88 124.754 23.9547 125.032 24.008C125.32 24.0507 125.672 24.072 126.088 24.072Z" fill="#333333"/>
</g>
<defs>
<filter id="filter0_d_577:124" x="0" y="0" width="168" height="45" filterUnits="userSpaceOnUse" color-interpolation-filters="sRGB">
<feFlood flood-opacity="0" result="BackgroundImageFix"/>
<feColorMatrix in="SourceAlpha" type="matrix" values="0 0 0 0 0 0 0 0 0 0 0 0 0 0 0 0 0 0 127 0" result="hardAlpha"/>
<feOffset dy="4"/>
<feGaussianBlur stdDeviation="2"/>
<feComposite in2="hardAlpha" operator="out"/>
<feColorMatrix type="matrix" values="0 0 0 0 0 0 0 0 0 0 0 0 0 0 0 0 0 0 0.25 0"/>
<feBlend mode="normal" in2="BackgroundImageFix" result="effect1_dropShadow_577:124"/>
<feBlend mode="normal" in="SourceGraphic" in2="effect1_dropShadow_577:124" result="shape"/>
</filter>
</defs>
</svg>
